#N canvas 288 96 1053 618 10;
#X obj 555 442 *~ 1;
#X obj 442 171 adc~ 1;
#X obj 555 467 dac~ 1;
#X obj 392 419 param.change;
#X obj 677 356 + 1;
#X obj 677 381 * 2;
#X obj 675 281 param.get 1 \$0-gain_r;
#X obj 676 305 param.get 2 \$0-peaks_r;
#X obj 677 331 param.get 5 \$0-scale_r;
#X obj 673 224 param.get 4 \$0-lowpass_r;
#X obj 657 414 param.get 3 \$0-level_r;
#X obj 11 11 cnv 15 398 288 empty empty empty 20 12 0 14 -233017 -66577
0;
#X text 109 344 Send GUI input upstream;
#X obj 24 104 hsl 128 15 1 0 0 0 \$0-peaks_s \$0-peaks_r empty -2 -12
0 10 -262144 -1 -1 0 1;
#X obj 23 68 hsl 128 15 0.01 35 0 0 \$0-gain_s \$0-gain_r empty -2
-8 0 10 -262144 -1 -1 2174 1;
#X obj 219 277 hsl 128 15 0 1 0 0 \$0-level_s \$0-level_r empty -2
-12 0 10 -262144 -1 -1 9525 1;
#X text 68 13 AUCOPlugins, f 13;
#X text 218 259 Level, f 7;
#X text 29 49 Gain, f 6;
#X obj 24 140 hsl 128 15 200 2200 0 0 \$0-lowpass_s \$0-lowpass_r empty
-2 -8 0 10 -262144 -1 -1 4762 1;
#X obj 93 203 hradio 15 1 0 6 \$0-scale_s \$0-scale_r empty 0 -8 0
10 -262144 -1 -1 0;
#X text 45 202 Scale, f 6;
#X obj 538 127 *~ 50;
#X obj 537 41 osc~ 0.3;
#X obj 539 154 +~ 50;
#X obj 554 316 +~;
#X obj 507 202 vcf~ 400, f 11;
#X obj 570 277 *~ -2;
#X obj 571 236 *~ 0.3;
#X obj 508 236 *~ 1;
#X obj 604 189 - 1;
#X obj 604 212 abs;
#X obj 619 42 param.get 6 \$0-LFOonOff_r;
#X obj 537 17 param.get 7 \$0-LFOfreq_r;
#X obj 608 75 param.get 8 \$0-sweep_r;
#X obj 609 128 param.get 10 \$0-freqQ_r;
#X obj 630 153 param.get 11 \$0-fMix_r;
#X obj 219 104 hsl 128 15 10 350 0 0 \$0-sweep_s \$0-sweep_r empty
-2 -8 0 10 -262144 -1 -1 934 1;
#X obj 219 140 hsl 128 15 50 1500 0 0 \$0-freqCenter_s \$0-freqCenter_r
empty -2 -8 0 10 -262144 -1 -1 4773 1;
#X obj 219 69 hsl 128 15 0.01 5 0 0 \$0-LFOfreq_s \$0-LFOfreq_r empty
-2 -8 0 10 -262144 -1 -1 802 1;
#X text 228 50 LFO Freq, f 10;
#X obj 219 244 hsl 128 15 3 -10 0 0 \$0-mixAmt_s \$0-mixAmt_r empty
-2 -8 0 10 -262144 -1 -1 4171 1;
#X obj 220 175 hsl 128 15 0.1 12 0 0 \$0-freqQ_s \$0-freqQ_r empty
-2 -8 0 10 -262144 -1 -1 1387 1;
#X obj 219 209 hsl 128 15 1 0 0 0 \$0-fMix_s \$0-fMix_r empty 36 -8
0 10 -262144 -1 -1 3175 1;
#X text 229 157 Filter Q, f 11;
#X text 224 226 Mix Amount, f 13;
#X obj 332 48 tgl 15 0 \$0-LFOonOff_s \$0-LFOonOff_r empty 17 7 0 10
-262144 -1 -1 1 1;
#X text 351 46 On/Off;
#X text 225 85 LFO Sweep Range, f 16;
#X obj 33 367 param.set 1 \$0-gain_s;
#X obj 33 393 param.set 2 \$0-peaks_s;
#X obj 33 419 param.set 3 \$0-level_s;
#X obj 33 444 param.set 4 \$0-lowpass_s;
#X obj 32 469 param.set 5 \$0-scale_s;
#X obj 32 492 param.set 6 \$0-LFOonOff_s;
#X obj 195 369 param.set 7 \$0-LFOfreq_s;
#X obj 194 443 param.set 10 \$0-freqQ_s;
#X obj 195 394 param.set 8 \$0-sweep_s;
#X obj 196 468 param.set 11 \$0-fMix_s;
#X obj 357 244 nbx 4 14 -1e+37 1e+37 0 0 empty empty empty 0 -8 0 10
-262144 -1 -1 -1.27 256;
#X obj 357 209 nbx 4 14 -1e+37 1e+37 0 0 empty empty empty 0 -8 0 10
-262144 -1 -1 0.75 256;
#X obj 357 175 nbx 4 14 -1e+37 1e+37 0 0 empty empty empty 0 -8 0 10
-262144 -1 -1 1.4 256;
#X obj 358 140 nbx 4 14 -1e+37 1e+37 0 0 empty empty empty 0 -8 0 10
-262144 -1 -1 595 256;
#X obj 357 105 nbx 4 14 -1e+37 1e+37 0 0 empty empty empty 0 -8 0 10
-262144 -1 -1 35 256;
#X obj 357 69 nbx 4 14 -1e+37 1e+37 0 0 empty empty empty 0 -8 0 10
-262144 -1 -1 0.325 256;
#X obj 357 278 nbx 4 14 -1e+37 1e+37 0 0 empty empty empty 0 -8 0 10
-262144 -1 -1 0.75 256;
#X obj 160 141 nbx 4 14 -1e+37 1e+37 0 0 empty empty empty 0 -8 0 10
-262144 -1 -1 950 256;
#X obj 160 104 nbx 4 14 -1e+37 1e+37 0 0 empty empty empty 0 -8 0 10
-262144 -1 -1 1 256;
#X obj 159 69 nbx 4 14 -1e+37 1e+37 0 0 empty empty empty 0 -8 0 10
-262144 -1 -1 6 256;
#X obj 167 39 cnv 4 70 4 empty empty empty 20 12 0 14 -128992 -66577
0;
#N canvas 483 165 830 548 presetsWin 0;
#X obj 386 405 s \$0-scale_r;
#X obj 370 429 s \$0-level_r;
#X obj 401 381 s \$0-lowpass_r;
#X obj 417 356 s \$0-LFOfreq_r;
#X obj 432 331 s \$0-sweep_r;
#X obj 463 282 s \$0-freqQ_r;
#X obj 494 232 s \$0-LFOonOff_r;
#X obj 510 207 s \$0-fMix_r;
#X obj 340 79 + 0;
#X obj 355 37 * 9;
#X obj 326 47 t b;
#X obj 355 453 s \$0-peaks_r;
#X obj 340 477 s \$0-gain_r;
#X obj 81 202 text define \$0-preText;
#X msg 81 176 read ./gtPresets.txt;
#X obj 81 149 loadbang;
#X msg 51 261 0;
#X obj 355 9 r \$0-presetBank_s;
#X obj 2 2 cnv 15 173 63 empty empty empty 20 12 0 14 -203904 -66577
0;
#X obj 12 21 hradio 14 1 0 9 \$0-presetPatch_s \$0-presetPatch_r empty
0 -8 0 10 -262144 -1 -1 0;
#X obj 389 37 r \$0-presetPatch_s;
#X obj 51 286 s \$0-presetPatch_r;
#X obj 152 8 vradio 13 1 0 3 \$0-presetBank_s \$0-presetBank_r empty
0 -8 0 10 -262144 -1 -1 2;
#X symbolatom 12 41 21 0 0 0 - #0-presetName_r #0-presetName_s;
#X obj 541 160 s \$0-presetName_r;
#X text 145 46 Bank;
#X obj 51 236 delay 300;
#X text 34 2 Presets, f 10;
#X obj 448 307 s \$0-freqCenter_r;
#X obj 479 257 s \$0-mixAmt_r;
#X obj 340 136 unpack f f f f f f f f f f f f f s;
#X obj 525 183 s \$0-loOut_r;
#X obj 340 106 text get \$0-preText 0 14;
#X connect 8 0 32 0;
#X connect 9 0 8 1;
#X connect 10 0 8 0;
#X connect 14 0 13 0;
#X connect 15 0 14 0;
#X connect 15 0 26 0;
#X connect 16 0 21 0;
#X connect 17 0 9 0;
#X connect 17 0 10 0;
#X connect 20 0 8 0;
#X connect 26 0 16 0;
#X connect 30 0 12 0;
#X connect 30 1 11 0;
#X connect 30 2 1 0;
#X connect 30 3 0 0;
#X connect 30 4 2 0;
#X connect 30 5 3 0;
#X connect 30 6 4 0;
#X connect 30 7 28 0;
#X connect 30 8 5 0;
#X connect 30 9 29 0;
#X connect 30 10 6 0;
#X connect 30 11 7 0;
#X connect 30 12 31 0;
#X connect 30 13 24 0;
#X connect 32 0 30 0;
#X coords 0 -1 1 1 176 66 2 0 0;
#X restore 20 224 pd presetsWin;
#X obj 555 412 16x_distort;
#X obj 444 313 samplerate~;
#X obj 444 286 loadbang;
#X text 29 85 Squash Peaks, f 19;
#X text 31 121 Low Pass In, f 13;
#X text 226 121 Freq Center, f 13;
#X text 265 14 16x Oversampled, f 16;
#X text 164 21 GuitarToy16x, f 14;
#X obj 538 77 *~ 1;
#X obj 608 100 param.get 9 \$0-freqCenter_r;
#X obj 195 419 param.set 9 \$0-freqCenter_s;
#X obj 195 492 param.set 12 \$0-mixAmt_s;
#X obj 670 179 param.get 12 \$0-mixAmt_r;
#X text 214 193 BP Filter Mix LP, f 26;
#X obj 196 516 param.set 13 \$0-loOut_s;
#X obj 25 179 hsl 128 15 800 3800 0 0 \$0-loOut_s \$0-loOut_r empty
-2 -8 0 10 -262144 -1 -1 7620 1;
#X text 30 159 Low Pass Out, f 14;
#X obj 161 179 nbx 4 14 -1e+37 1e+37 0 0 empty empty empty 0 -8 0 10
-262144 -1 -1 2600 256;
#X obj 674 249 param.get 13 \$0-loOut_r;
#X obj 196 540 param.set 14 \$0-presetPatch_s;
#X obj 197 564 param.set 15 \$0-presetBank_s;
#X obj 679 534 param.get 14 \$0-presetPatch_r;
#X obj 679 558 param.get 15 \$0-presetBank_r;
#X text 686 512 Get preset params;
#X connect 0 0 2 0;
#X connect 1 0 25 0;
#X connect 1 0 26 0;
#X connect 4 0 5 0;
#X connect 5 0 71 5;
#X connect 6 0 71 3;
#X connect 7 0 71 4;
#X connect 8 0 4 0;
#X connect 9 0 71 1;
#X connect 10 0 0 1;
#X connect 13 0 67 0;
#X connect 14 0 68 0;
#X connect 15 0 65 0;
#X connect 19 0 66 0;
#X connect 22 0 24 0;
#X connect 23 0 79 0;
#X connect 24 0 26 1;
#X connect 25 0 71 0;
#X connect 26 0 29 0;
#X connect 26 1 28 0;
#X connect 27 0 25 1;
#X connect 28 0 27 0;
#X connect 29 0 27 0;
#X connect 30 0 31 0;
#X connect 31 0 28 1;
#X connect 32 0 79 1;
#X connect 33 0 23 0;
#X connect 34 0 22 1;
#X connect 35 0 26 2;
#X connect 36 0 30 1;
#X connect 37 0 63 0;
#X connect 38 0 62 0;
#X connect 39 0 64 0;
#X connect 41 0 59 0;
#X connect 42 0 61 0;
#X connect 43 0 60 0;
#X connect 71 0 0 0;
#X connect 72 0 71 6;
#X connect 73 0 72 0;
#X connect 79 0 22 0;
#X connect 80 0 24 1;
#X connect 83 0 27 1;
#X connect 86 0 88 0;
#X connect 89 0 71 2;
#X coords 0 -1 1 1 400 290 2 10 10;
