#N canvas 210 133 692 566 10;
#X obj 407 424 rzero~ -1;
#X obj 407 447 rzero~ -1;
#X obj 407 470 rzero~ -1;
#X obj 407 499 outlet~;
#X obj 500 259 buttercoef3;
#X obj 500 173 / 24000;
#X obj 455 90 inlet;
#X obj 500 116 loadbang;
#X obj 367 90 inlet;
#X obj 323 90 inlet;
#X obj 406 268 *~;
#X obj 406 293 rpole~;
#X obj 406 318 *~;
#X obj 406 344 cpole~, f 10;
#X obj 406 370 cpole~, f 10;
#X obj 411 90 inlet;
#X obj 18 330 sqrtpeaks;
#X msg 500 141 12000;
#X obj 100 15 inlet;
#X obj 407 396 *~ 0.125;
#X obj 590 12 inlet;
#X obj 35 482 block~ 1024 1 16;
#X obj 500 198 / 16;
#X obj 19 13 inlet~ pad;
#X obj 276 16 loadbang;
#X obj 211 15 inlet;
#X msg 100 153 \$1 \$2 \$3 \$4;
#X obj 18 240 biquad~, f 8;
#X obj 100 127 biquad_lowpass_calc;
#X obj 18 273 *~;
#X obj 18 305 *~;
#X obj 19 382 /~;
#X msg 282 86 1;
#X obj 590 74 * 0.5;
#X obj 590 98 max 100;
#X obj 155 64 * 16;
#X obj 155 88 max 200;
#X msg 228 86 768000;
#X connect 0 0 1 0;
#X connect 1 0 2 0;
#X connect 2 0 3 0;
#X connect 4 0 10 1;
#X connect 4 1 12 1;
#X connect 4 2 11 1;
#X connect 4 3 13 2;
#X connect 4 3 14 2;
#X connect 4 4 13 3;
#X connect 4 5 14 3;
#X connect 5 0 22 0;
#X connect 6 0 5 0;
#X connect 7 0 17 0;
#X connect 8 0 16 1;
#X connect 9 0 29 1;
#X connect 10 0 11 0;
#X connect 11 0 12 0;
#X connect 12 0 13 0;
#X connect 13 0 14 0;
#X connect 13 1 14 1;
#X connect 14 0 19 0;
#X connect 15 0 30 1;
#X connect 15 0 31 1;
#X connect 16 0 31 0;
#X connect 17 0 5 0;
#X connect 18 0 28 0;
#X connect 19 0 0 0;
#X connect 20 0 33 0;
#X connect 20 0 35 0;
#X connect 22 0 4 0;
#X connect 23 0 27 0;
#X connect 24 0 32 0;
#X connect 24 0 37 0;
#X connect 25 0 28 2;
#X connect 26 0 27 0;
#X connect 27 0 29 0;
#X connect 28 0 26 0;
#X connect 29 0 30 0;
#X connect 30 0 16 0;
#X connect 31 0 10 0;
#X connect 32 0 28 2;
#X connect 33 0 34 0;
#X connect 34 0 5 1;
#X connect 35 0 36 0;
#X connect 36 0 28 1;
#X connect 37 0 28 1;
