#N canvas 151 168 714 532 10;
#X obj 63 51 inlet;
#X floatatom 522 134 5 0 0 0 - - -;
#X obj 101 153 t f f;
#X msg 101 108 0.667;
#X msg 82 283 0;
#X obj 517 270 loadbang;
#X obj 528 298 inlet;
#X obj 517 322 f;
#X obj 517 346 expr 1 - 2*$f1;
#X obj 63 79 t b b b f;
#X obj 205 228 * -1;
#X obj 163 228 t f f;
#X obj 63 391 f;
#X obj 30 463 outlet;
#X obj 282 475 outlet;
#X obj 437 476 outlet;
#X obj 500 477 outlet;
#X obj 367 476 outlet;
#X obj 173 470 outlet;
#X obj 156 436 expr (($f2-$f1)*($f2-$f1)+$f3*$f3);
#X obj 63 412 t f f;
#X obj 101 176 expr (1 - $f2*$f2) / (1 + $f2*$f2 + 2*$f2*cos($f1))
;
#X obj 163 205 expr 2*$f2*sin($f1) / (1 + $f2*$f2 + 2*$f2*cos($f1))
;
#X obj 82 307 expr (1 - $f2*$f2) / (1 + $f2*$f2 + 2*$f2*cos($f1));
#X obj 522 89 clip 0 1;
#X obj 522 111 expr tan($f1*1.57);
#X obj 101 131 expr $f1*1.5708;
#X obj 30 439 expr abs($f1-$f2);
#X connect 0 0 9 0;
#X connect 1 0 21 1;
#X connect 1 0 22 1;
#X connect 1 0 23 1;
#X connect 2 0 21 0;
#X connect 2 1 22 0;
#X connect 3 0 26 0;
#X connect 4 0 23 0;
#X connect 5 0 7 0;
#X connect 6 0 7 0;
#X connect 7 0 8 0;
#X connect 8 0 12 1;
#X connect 9 0 12 0;
#X connect 9 1 4 0;
#X connect 9 2 3 0;
#X connect 9 3 24 0;
#X connect 10 0 16 0;
#X connect 11 0 15 0;
#X connect 11 0 19 2;
#X connect 11 1 10 0;
#X connect 12 0 20 0;
#X connect 19 0 18 0;
#X connect 20 0 27 0;
#X connect 20 1 19 0;
#X connect 21 0 17 0;
#X connect 21 0 19 1;
#X connect 22 0 11 0;
#X connect 23 0 14 0;
#X connect 23 0 27 1;
#X connect 24 0 25 0;
#X connect 25 0 1 0;
#X connect 26 0 2 0;
#X connect 27 0 13 0;
