#N canvas 290 90 981 650 10;
#X obj 440 77 adc~ 1;
#X obj 556 563 dac~ 1;
#X obj 33 363 param.change;
#X obj 759 346 + 1;
#X obj 759 371 * 2;
#X obj 11 11 cnv 15 398 328 empty empty empty 20 12 0 14 -233017 -66577
0;
#X obj 219 277 hsl 128 15 0 1.1 0 0 \$0-level_s \$0-level_r empty -2
-12 0 10 -262144 -1 -1 0 1;
#X text 329 12 AUCOPlugins, f 12;
#X text 232 259 Level, f 7;
#X obj 538 76 osc~ 0.3;
#X obj 555 373 +~;
#X obj 508 223 vcf~ 400, f 11;
#X obj 613 223 - 1;
#X obj 613 246 abs;
#X obj 219 104 hsl 128 15 10 350 0 0 \$0-sweep_s \$0-sweep_r empty
-2 -8 0 10 -191407 -262144 -1 0 1;
#X obj 219 140 hsl 128 15 50 1500 0 0 \$0-freqCenter_s \$0-freqCenter_r
empty -2 -8 0 10 -262130 -1 -1 0 1;
#X obj 219 69 hsl 128 15 0.01 5 0 0 \$0-LFOfreq_s \$0-LFOfreq_r LFO_Freq
20 -8 0 10 -191407 -262144 -1 0 1;
#X obj 219 244 hsl 128 15 3 -10 0 0 \$0-mixAmt_s \$0-mixAmt_r empty
-2 -8 0 10 -262130 -1 -1 2931 1;
#X obj 220 175 hsl 128 15 0.1 12 0 0 \$0-freqQ_s \$0-freqQ_r empty
-2 -8 0 10 -262130 -1 -1 0 1;
#X obj 219 209 hsl 128 15 1 0 0 0 \$0-fMix_s \$0-fMix_r empty 36 -8
0 10 -262130 -1 -1 12700 1;
#X text 231 157 Filter Q, f 11;
#X text 233 226 Mix Amount, f 13;
#X obj 332 48 tgl 15 0 \$0-LFOonOff_s \$0-LFOonOff_r On/Off 18 7 0
10 -262144 -1 -1 0 1;
#X text 231 85 LFO Sweep Range, f 16;
#X obj 357 244 nbx 4 14 -1e+37 1e+37 0 0 empty empty empty 0 -8 0 10
-262144 -1 -1 0 256;
#X obj 357 209 nbx 4 14 -1e+37 1e+37 0 0 empty empty empty 0 -8 0 10
-262144 -1 -1 0 256;
#X obj 357 175 nbx 4 14 -1e+37 1e+37 0 0 empty empty empty 0 -8 0 10
-262144 -1 -1 0 256;
#X obj 358 140 nbx 4 14 -1e+37 1e+37 0 0 empty empty empty 0 -8 0 10
-262144 -1 -1 0 256;
#X obj 357 105 nbx 4 14 -1e+37 1e+37 0 0 empty empty empty 0 -8 0 10
-262144 -1 -1 0 256;
#X obj 357 69 nbx 4 14 -1e+37 1e+37 0 0 empty empty empty 0 -8 0 10
-262144 -1 -1 0 256;
#X obj 357 278 nbx 4 14 -1e+37 1e+37 0 0 empty empty empty 0 -8 0 10
-262144 -1 -1 0 256;
#X obj 219 40 cnv 4 70 4 empty empty empty 20 12 0 14 -128992 -66577
0;
#N canvas 104 93 1065 651 presetsWin 0;
#X obj 2 2 cnv 15 173 63 empty empty empty 20 12 0 14 -203904 -66577
0;
#X obj 12 21 hradio 14 1 0 9 \$0-presetPatch_s \$0-presetPatch_r Presets
0 -8 0 10 -262144 -262144 -262144 8;
#X obj 152 8 vradio 13 1 0 3 \$0-presetBank_s \$0-presetBank_r empty
0 -8 0 10 -262144 -262144 -262144 0;
#X symbolatom 12 41 21 0 0 0 - #0-presetName_r #0-presetName_s;
#X text 145 46 Bank;
#X obj 60 5 tgl 13 0 \$0-bufferSwtc_s \$0-bufferSwtc_r Use_Buffer 18
8 0 10 -262144 -1 -1 1 1;
#X obj 26 194 text define \$0-preText;
#X obj 26 112 loadbang;
#X obj 60 170 r \$0-preTextDefine;
#X msg 26 139 read ./gtPresets_V2.txt;
#X obj 24 231 text define \$0-buffText;
#X obj 251 120 + 0;
#X obj 266 78 * 9;
#X obj 237 88 t b;
#X obj 300 78 r \$0-presetPatch_s;
#X obj 266 50 r \$0-presetBank_s;
#X obj 251 238 spigot 0;
#X msg 296 189 1;
#X obj 251 346 unpack f f f f f f f f f f f f f f f s, f 39;
#X obj 251 268 text get \$0-preText;
#X obj 787 47 sel 0 1;
#X obj 787 19 r \$0-bufferSwtc_s;
#X msg 319 214 0;
#X obj 825 218 s \$0-presetPatch_r;
#X msg 825 195 color 0 0 0;
#X obj 643 122 s \$0-presetPatch_r;
#X msg 643 99 color 0 22 22;
#X obj 661 146 s \$0-presetBank_r;
#X obj 848 242 s \$0-presetBank_r;
#X obj 319 311 text get \$0-buffText;
#X obj 328 401 s \$0-scale_r;
#X obj 281 476 s \$0-level_r;
#X obj 451 428 s \$0-lowpass_r;
#X obj 358 572 s \$0-LFOfreq_r;
#X obj 374 547 s \$0-sweep_r;
#X obj 405 498 s \$0-freqQ_r;
#X obj 343 376 s \$0-LFOonOff_r;
#X obj 420 475 s \$0-fMix_r;
#X obj 266 501 s \$0-gain_r;
#X obj 312 426 s \$0-peaks_r;
#X obj 466 404 s \$0-loOut_r;
#X obj 251 525 s \$0-preLevel_r;
#X obj 389 522 s \$0-freqCenter_r;
#X obj 435 451 s \$0-mixAmt_r;
#X obj 482 377 s \$0-presetName_r;
#X obj 297 450 s \$0-resonance_r;
#X obj 630 292 pack f f f;
#X msg 630 339 \$2;
#X obj 667 364 s \$0-presetBank_r;
#X obj 630 388 s \$0-presetPatch_r;
#X msg 667 339 \$3;
#X obj 713 264 float 0;
#X obj 658 264 float 0;
#X text 607 17 Restore radio \; use presets;
#X text 911 163 Hide Radio \; use buffer;
#X msg 806 275 gui redraw;
#X obj 806 298 s camomile;
#X obj 611 69 t b b b;
#X obj 806 144 t b b b;
#X connect 7 0 9 0;
#X connect 8 0 6 0;
#X connect 9 0 6 0;
#X connect 11 0 16 0;
#X connect 12 0 11 1;
#X connect 13 0 11 0;
#X connect 14 0 11 0;
#X connect 14 0 52 1;
#X connect 15 0 12 0;
#X connect 15 0 13 0;
#X connect 15 0 51 1;
#X connect 16 0 19 0;
#X connect 17 0 16 1;
#X connect 18 0 41 0;
#X connect 18 1 38 0;
#X connect 18 2 31 0;
#X connect 18 3 45 0;
#X connect 18 4 39 0;
#X connect 18 5 30 0;
#X connect 18 6 36 0;
#X connect 18 7 33 0;
#X connect 18 8 34 0;
#X connect 18 9 42 0;
#X connect 18 10 35 0;
#X connect 18 11 37 0;
#X connect 18 12 43 0;
#X connect 18 13 32 0;
#X connect 18 14 40 0;
#X connect 18 15 44 0;
#X connect 19 0 18 0;
#X connect 20 0 57 0;
#X connect 20 1 58 0;
#X connect 21 0 20 0;
#X connect 22 0 16 1;
#X connect 22 0 29 0;
#X connect 24 0 23 0;
#X connect 24 0 28 0;
#X connect 26 0 25 0;
#X connect 26 0 27 0;
#X connect 29 0 18 0;
#X connect 46 0 47 0;
#X connect 46 0 50 0;
#X connect 47 0 49 0;
#X connect 50 0 48 0;
#X connect 51 0 46 2;
#X connect 52 0 46 1;
#X connect 55 0 56 0;
#X connect 57 0 55 0;
#X connect 57 1 26 0;
#X connect 57 1 46 0;
#X connect 57 2 17 0;
#X connect 58 0 55 0;
#X connect 58 1 24 0;
#X connect 58 1 22 0;
#X connect 58 2 51 0;
#X connect 58 2 52 0;
#X coords 0 -1 1 1 176 66 2 0 0;
#X restore 23 266 pd presetsWin;
#X obj 556 491 16x_distort;
#X obj 761 452 samplerate~;
#X obj 761 429 loadbang;
#X text 232 121 Freq Center, f 13;
#X text 216 22 GuitarToy16x, f 14;
#X text 214 193 BP....Filter Mix....LP, f 25;
#X obj 441 151 *~;
#X obj 571 312 *~;
#X obj 539 162 *~;
#X obj 540 189 +~;
#X obj 572 265 *~;
#X obj 509 251 *~;
#X obj 231 310 bng 15 250 50 0 empty empty Load_Patch_File 18 7 0 10
-262144 -1 -1;
#N canvas 857 147 463 335 loadPatch 0;
#X obj 187 210 t b;
#X obj 63 36 inlet;
#X obj 233 177 s \$0-preTextDefine;
#X msg 218 145 read \$1;
#X obj 218 117 r openpanel;
#X obj 63 86 s camomile;
#X obj 187 266 s \$0-presetPatch_r;
#X msg 63 63 openpanel ~/.AUCOP/guitarToy16x/ -s;
#X obj 187 234 delay 800;
#X connect 0 0 8 0;
#X connect 1 0 7 0;
#X connect 3 0 2 0;
#X connect 3 0 0 0;
#X connect 4 0 3 0;
#X connect 7 0 5 0;
#X connect 8 0 6 0;
#X restore 231 351 pd loadPatch;
#X obj 482 191 *~ 0.9;
#X obj 24 105 hsl 128 15 1 0 0 0 \$0-peaks_s \$0-peaks_r Squash_Peaks
20 -8 0 10 -262130 -1 -1 12700 1;
#X obj 24 69 hsl 128 15 0.01 85 0 0 \$0-gain_s \$0-gain_r Gain 20 -8
0 10 -262130 -1 -1 0 1;
#X obj 24 141 hsl 128 15 200 2200 0 0 \$0-lowpass_s \$0-lowpass_r LowPass_In
20 -8 0 10 -262144 -1 -1 0 1;
#X obj 105 204 hradio 15 1 0 6 \$0-scale_s \$0-scale_r Scale -40 8
0 10 -262144 -1 -1 0;
#X obj 160 142 nbx 4 14 -1e+37 1e+37 0 0 empty empty empty 0 -8 0 10
-262144 -1 -1 0 256;
#X obj 160 105 nbx 4 14 -1e+37 1e+37 0 0 empty empty empty 0 -8 0 10
-262144 -1 -1 0 256;
#X obj 160 70 nbx 4 14 -1e+37 1e+37 0 0 empty empty empty 0 -8 0 10
-262144 -1 -1 0 256;
#X obj 25 179 hsl 128 15 800 3800 0 0 \$0-loOut_s \$0-loOut_r LowPass_Out
20 -8 0 10 -262144 -1 -1 0 1;
#X obj 161 179 nbx 4 14 -1e+37 1e+37 0 0 empty empty empty 0 -8 0 10
-262144 -1 -1 0 256;
#X obj 25 34 hsl 128 15 1 50 0 0 \$0-preLevel_s \$0-preLevel_r Pre-Level
20 -8 0 10 -262144 -1 -1 0 1;
#X obj 161 35 nbx 4 14 -1e+37 1e+37 0 0 empty empty empty 0 -8 0 10
-262144 -1 -1 0 256;
#X obj 26 239 hsl 128 15 0.1 4 0 0 \$0-resonance_s \$0-resonance_r
Resonance 20 -8 0 10 -262130 -1 -1 0 1;
#X obj 161 239 nbx 4 14 -1e+37 1e+37 0 0 empty empty empty 0 -8 0 10
-262144 -1 -1 0 256;
#N canvas 605 145 579 618 sendAllParams 0;
#X obj 22 68 r \$0-gain_s;
#X obj 24 227 r \$0-peaks_s;
#X obj 25 147 param.set 3;
#X obj 25 121 r \$0-level_s;
#X obj 361 146 r \$0-lowpass_s;
#X obj 23 279 r \$0-scale_s;
#X obj 25 365 r \$0-LFOonOff_s;
#X obj 25 417 r \$0-LFOfreq_s;
#X obj 25 472 r \$0-sweep_s;
#X obj 144 364 r \$0-freqCenter_s;
#X obj 144 414 r \$0-freqQ_s;
#X obj 144 464 r \$0-fMix_s;
#X obj 144 514 r \$0-mixAmt_s;
#X obj 361 199 r \$0-loOut_s;
#X obj 23 19 r \$0-preLevel_s;
#X obj 22 94 param.set 2;
#X obj 24 253 param.set 5;
#X obj 361 172 param.set 14;
#X obj 25 391 param.set 7;
#X obj 25 443 param.set 8;
#X obj 25 498 param.set 9;
#X obj 144 389 param.set 10;
#X obj 144 439 param.set 11;
#X obj 144 490 param.set 12;
#X obj 144 539 param.set 13;
#X obj 361 225 param.set 15;
#X obj 23 44 param.set 1;
#X obj 27 198 param.set 4;
#X obj 23 305 param.set 6;
#X obj 27 173 r \$0-resonance_s;
#X obj 369 437 param.set 17;
#X obj 369 392 r \$0-presetBank_s;
#X obj 369 359 param.set 16;
#X obj 369 300 r \$0-presetPatch_s;
#X obj 369 330 t f;
#X connect 0 0 15 0;
#X connect 1 0 16 0;
#X connect 3 0 2 0;
#X connect 4 0 17 0;
#X connect 5 0 28 0;
#X connect 6 0 18 0;
#X connect 7 0 19 0;
#X connect 8 0 20 0;
#X connect 9 0 21 0;
#X connect 10 0 22 0;
#X connect 11 0 23 0;
#X connect 12 0 24 0;
#X connect 13 0 25 0;
#X connect 14 0 26 0;
#X connect 29 0 27 0;
#X connect 31 0 30 0;
#X connect 33 0 34 0;
#X connect 34 0 32 0;
#X restore 32 390 pd sendAllParams;
#X obj 745 246 r \$0-resonance_s;
#X obj 556 538 *~;
#X obj 539 112 *~;
#X obj 519 24 r \$0-preLevel_s;
#X obj 538 52 r \$0-LFOfreq_s;
#X obj 620 77 r \$0-LFOonOff_s;
#X obj 609 110 r \$0-sweep_s;
#X obj 609 135 r \$0-freqCenter_s;
#X obj 610 163 r \$0-freqQ_s;
#X obj 613 194 r \$0-fMix_s;
#X obj 596 288 r \$0-mixAmt_s;
#X obj 730 221 r \$0-lowpass_s;
#X obj 751 271 r \$0-gain_s;
#X obj 759 295 r \$0-peaks_s;
#X obj 759 321 r \$0-scale_s;
#X obj 762 403 r \$0-loOut_s;
#X obj 652 502 r \$0-level_s;
#X obj 361 370 loadbang;
#X obj 286 504 text fromlist \$0-buffText;
#X obj 286 424 receive param;
#X obj 252 514 t b;
#X obj 252 585 s \$0-bufferSwtc_r;
#X msg 252 561 1;
#N canvas 420 156 849 521 recvParams 0;
#X obj 367 297 change -1e+37;
#X obj 331 84 change -1e+37;
#X obj 295 154 change -1e+37;
#X obj 260 223 change -1e+37;
#X obj 546 222 change -1e+37;
#X obj 152 152 change -1e+37;
#X obj 224 293 change -1e+37;
#X obj 116 221 change -1e+37;
#X obj 377 323 s \$0-sweep_r;
#X obj 324 111 s \$0-LFOfreq_r;
#X obj 289 180 s \$0-LFOonOff_r;
#X obj 254 250 s \$0-scale_r;
#X obj 210 319 s \$0-peaks_r;
#X obj 109 248 s \$0-gain_r;
#X obj 582 156 change -1e+37;
#X obj 188 82 change -1e+37;
#X obj 81 290 change -1e+37;
#X obj 475 83 change -1e+37;
#X obj 510 301 change -1e+37;
#X obj 403 224 change -1e+37;
#X obj 439 153 change -1e+37;
#X obj 714 157 change -1e+37;
#X obj 618 79 change -1e+37;
#X obj 714 182 s \$0-presetBank_r;
#X obj 618 104 s \$0-presetPatch_r;
#X obj 178 108 s \$0-resonance_r;
#X obj 78 316 s \$0-preLevel_r;
#X obj 592 183 s \$0-loOut_r;
#X obj 519 327 s \$0-mixAmt_r;
#X obj 485 109 s \$0-fMix_r;
#X obj 447 180 s \$0-freqQ_r;
#X obj 412 250 s \$0-freqCenter_r;
#X obj 64 365 inlet;
#X obj 556 248 s \$0-lowpass_r;
#X obj 145 177 s \$0-level_r;
#X obj 83 401 pack f f f f f f f f f f f f f f f f, f 79;
#X obj 83 429 list split 1;
#X obj 117 459 outlet;
#X obj 81 46 route 1 2 3 4 5 6 7 8 9 10 11 12 13 14 15 16 17, f 102
;
#X obj 21 14 inlet;
#X connect 0 0 35 9;
#X connect 0 0 8 0;
#X connect 1 0 35 8;
#X connect 1 0 9 0;
#X connect 2 0 35 7;
#X connect 2 0 10 0;
#X connect 3 0 35 6;
#X connect 3 0 11 0;
#X connect 4 0 35 14;
#X connect 4 0 33 0;
#X connect 5 0 35 3;
#X connect 5 0 34 0;
#X connect 6 0 35 5;
#X connect 6 0 12 0;
#X connect 7 0 35 2;
#X connect 7 0 13 0;
#X connect 14 0 35 15;
#X connect 14 0 27 0;
#X connect 15 0 35 4;
#X connect 15 0 25 0;
#X connect 16 0 35 1;
#X connect 16 0 26 0;
#X connect 17 0 35 12;
#X connect 17 0 29 0;
#X connect 18 0 35 13;
#X connect 18 0 28 0;
#X connect 19 0 35 10;
#X connect 19 0 31 0;
#X connect 20 0 35 11;
#X connect 20 0 30 0;
#X connect 21 0 23 0;
#X connect 22 0 24 0;
#X connect 32 0 35 0;
#X connect 35 0 36 0;
#X connect 36 1 37 0;
#X connect 38 0 16 0;
#X connect 38 1 7 0;
#X connect 38 2 5 0;
#X connect 38 3 15 0;
#X connect 38 4 6 0;
#X connect 38 5 3 0;
#X connect 38 6 2 0;
#X connect 38 7 1 0;
#X connect 38 8 0 0;
#X connect 38 9 19 0;
#X connect 38 10 20 0;
#X connect 38 11 17 0;
#X connect 38 12 18 0;
#X connect 38 13 4 0;
#X connect 38 14 14 0;
#X connect 38 15 22 0;
#X connect 38 16 21 0;
#X connect 39 0 38 0;
#X restore 286 451 pd recvParams;
#X text 329 25 V 0.1.71a;
#X obj 286 478 list append Buffer;
#X obj 252 538 delay 150;
#X obj 361 393 delay 100;
#X connect 0 0 39 0;
#X connect 3 0 4 0;
#X connect 4 0 33 5;
#X connect 6 0 30 0;
#X connect 9 0 64 0;
#X connect 10 0 33 0;
#X connect 11 0 44 0;
#X connect 11 1 43 0;
#X connect 12 0 13 0;
#X connect 13 0 43 1;
#X connect 14 0 28 0;
#X connect 15 0 27 0;
#X connect 16 0 29 0;
#X connect 17 0 24 0;
#X connect 18 0 26 0;
#X connect 19 0 25 0;
#X connect 33 0 63 0;
#X connect 34 0 33 7;
#X connect 35 0 34 0;
#X connect 39 0 10 0;
#X connect 39 0 47 0;
#X connect 40 0 10 1;
#X connect 41 0 42 0;
#X connect 42 0 11 1;
#X connect 43 0 40 0;
#X connect 44 0 40 0;
#X connect 45 0 46 0;
#X connect 47 0 11 0;
#X connect 48 0 53 0;
#X connect 49 0 54 0;
#X connect 50 0 52 0;
#X connect 55 0 56 0;
#X connect 57 0 58 0;
#X connect 59 0 60 0;
#X connect 62 0 33 2;
#X connect 63 0 1 0;
#X connect 64 0 41 0;
#X connect 65 0 39 1;
#X connect 66 0 9 0;
#X connect 67 0 64 1;
#X connect 68 0 41 1;
#X connect 69 0 42 1;
#X connect 70 0 11 2;
#X connect 71 0 44 1;
#X connect 71 0 12 0;
#X connect 72 0 40 1;
#X connect 73 0 33 1;
#X connect 74 0 33 3;
#X connect 75 0 33 4;
#X connect 76 0 3 0;
#X connect 77 0 33 6;
#X connect 78 0 63 1;
#X connect 79 0 89 0;
#X connect 81 0 85 0;
#X connect 82 0 88 0;
#X connect 84 0 83 0;
#X connect 85 0 87 0;
#X connect 87 0 80 0;
#X connect 87 0 82 0;
#X connect 88 0 84 0;
#X connect 89 0 85 1;
#X coords 0 -1 1 1 400 330 2 10 10;
