#N canvas 214 120 893 519 12;
#X obj 337 84 *~;
#X obj 264 409 *~;
#X obj 25 62 hsl 128 15 0.01 10 0 0 \$0-freq_s \$0-freq_r Frequency
-2 -8 0 11 -262144 -1 -1 0 1;
#X obj 25 100 hsl 128 15 0.05 3 0 0 \$0-peak_s \$0-peak_r Peak_Profile
-2 -8 0 11 -262144 -1 -1 0 1;
#X obj 265 352 adc~ 1 2;
#X obj 264 447 dac~ 1 2;
#X obj 317 417 *~;
#X obj 47 223 param.change;
#X obj 164 62 nbx 3 14 -1e+37 1e+37 0 0 empty \$0_freqNo_r empty 0
-8 0 10 -262144 -1 -1 0 256;
#X obj 164 100 nbx 3 14 -1e+37 1e+37 0 0 empty \$0_depthNo_r empty
0 -8 0 10 -262144 -1 -1 0 256;
#X text 619 344 Send GUI input upstream;
#X obj 25 137 hsl 128 15 0.05 2 0 0 \$0-gain_s \$0-gain_r Gain -2 -8
0 11 -262144 -1 -1 0 1;
#X obj 164 137 nbx 3 14 -1e+37 1e+37 0 0 empty \$0_strengthNo_r empty
0 -8 0 10 -262144 -1 -1 0 256;
#X text 41 11 AUCOPlugins, f 13;
#X obj 337 46 osc~;
#X obj 335 201 *~;
#X obj 336 140 +~ 1;
#X obj 335 169 *~ 0.5;
#X obj 337 112 clip~ -1 1;
#X obj 336 317 max~ 0.3;
#X obj 222 313 max~ 0.3;
#X obj 334 233 *~ -1;
#X obj 25 175 hsl 128 15 0 1 0 0 \$0-floor_s \$0-floor_r Minimum_Floor
-2 -8 0 11 -262144 -1 -1 0 1;
#X obj 335 275 +~;
#X obj 164 176 nbx 3 14 -1e+37 1e+37 0 0 empty empty empty 0 -8 0 10
-262144 -1 -1 0 256;
#X obj 337 18 param.get 1 \$0-freq_r;
#X obj 388 57 param.get 2 \$0-peak_r;
#X obj 389 279 param.get 4 \$0-floor_r;
#X obj 622 367 param.set 1 \$0-freq_s;
#X obj 622 393 param.set 2 \$0-peak_s;
#X obj 623 447 param.set 4 \$0-floor_s;
#X obj 448 172 param.get 3 \$0-gain_r;
#X obj 622 419 param.set 3 \$0-gain_s;
#X text 99 29 pingolo 0.1.71, f 15;
#X connect 0 0 18 0;
#X connect 1 0 5 0;
#X connect 2 0 8 0;
#X connect 3 0 9 0;
#X connect 4 0 1 0;
#X connect 4 1 6 0;
#X connect 6 0 5 1;
#X connect 11 0 12 0;
#X connect 14 0 0 0;
#X connect 15 0 20 0;
#X connect 15 0 21 0;
#X connect 16 0 17 0;
#X connect 17 0 15 0;
#X connect 18 0 16 0;
#X connect 19 0 6 1;
#X connect 20 0 1 1;
#X connect 21 0 23 0;
#X connect 22 0 24 0;
#X connect 23 0 19 0;
#X connect 25 0 14 0;
#X connect 26 0 0 1;
#X connect 27 0 19 1;
#X connect 27 0 20 1;
#X connect 31 0 15 1;
#X connect 31 0 23 1;
#X coords 0 -1 1 1 200 190 2 10 10;
