#N canvas 186 152 681 531 10;
#X obj 383 414 rzero~ -1;
#X obj 383 437 rzero~ -1;
#X obj 383 460 rzero~ -1;
#X obj 383 494 outlet~;
#X obj 344 237 buttercoef3;
#X obj 344 185 / 24000;
#X obj 152 42 inlet;
#X obj 344 112 loadbang;
#X obj 271 20 inlet;
#X obj 215 27 inlet;
#X obj 200 279 *~;
#X obj 200 304 rpole~;
#X obj 200 329 *~;
#X obj 200 355 cpole~, f 10;
#X obj 200 381 cpole~, f 10;
#X obj 342 51 inlet;
#X obj 20 213 sqrtpeaks;
#X obj 20 188 *~ 1;
#X obj 21 244 /~ 1;
#X obj 20 144 *~ 1;
#X msg 344 137 12000;
#X obj 89 26 inlet;
#X obj 383 386 *~ 0.125;
#X obj 20 30 inlet~;
#X obj 438 92 inlet;
#X obj 438 120 / 2;
#X obj 21 105 lop~;
#X obj 21 81 vcf~ 1.85;
#X obj 21 57 *~ 1.5;
#X obj 473 16 block~ 1024 1 16;
#X obj 344 210 / 16;
#X connect 0 0 1 0;
#X connect 1 0 2 0;
#X connect 2 0 3 0;
#X connect 4 0 10 1;
#X connect 4 1 12 1;
#X connect 4 2 11 1;
#X connect 4 3 13 2;
#X connect 4 3 14 2;
#X connect 4 4 13 3;
#X connect 4 5 14 3;
#X connect 5 0 30 0;
#X connect 6 0 5 0;
#X connect 7 0 20 0;
#X connect 8 0 16 1;
#X connect 9 0 19 1;
#X connect 10 0 11 0;
#X connect 11 0 12 0;
#X connect 12 0 13 0;
#X connect 13 0 14 0;
#X connect 13 1 14 1;
#X connect 14 0 22 0;
#X connect 15 0 17 1;
#X connect 15 0 18 1;
#X connect 16 0 18 0;
#X connect 17 0 16 0;
#X connect 18 0 10 0;
#X connect 19 0 17 0;
#X connect 20 0 5 0;
#X connect 21 0 26 1;
#X connect 21 0 27 1;
#X connect 22 0 0 0;
#X connect 23 0 28 0;
#X connect 24 0 25 0;
#X connect 25 0 5 1;
#X connect 26 0 19 0;
#X connect 27 0 26 0;
#X connect 28 0 27 0;
#X connect 30 0 4 0;
