#N canvas 168 221 492 353 10;
#X obj 57 13 inlet~;
#X obj 56 265 outlet~;
#X obj 197 66 sqrt~;
#X obj 198 43 abs~;
#X obj 56 193 expr~ if( $v1 > 1 \, $v2 \, if ($v1 < -1 \, $v3 \, $v1))
;
#X obj 398 57 inlet;
#X obj 343 95 -~ 1;
#X obj 342 119 *~ 1;
#X obj 342 143 +~ 1;
#X obj 341 167 *~ -1;
#X obj 197 124 *~ 1;
#X obj 198 100 -~ 1.25;
#X obj 197 148 +~ 1.25;
#X connect 0 0 3 0;
#X connect 0 0 4 0;
#X connect 2 0 6 0;
#X connect 2 0 11 0;
#X connect 3 0 2 0;
#X connect 4 0 1 0;
#X connect 5 0 7 1;
#X connect 5 0 10 1;
#X connect 6 0 7 0;
#X connect 7 0 8 0;
#X connect 8 0 9 0;
#X connect 9 0 4 2;
#X connect 10 0 12 0;
#X connect 11 0 10 0;
#X connect 12 0 4 1;
