#N canvas 186 152 681 531 10;
#X obj 200 400 rzero~ -1;
#X obj 200 423 rzero~ -1;
#X obj 200 446 rzero~ -1;
#X obj 200 480 outlet~;
#X obj 336 269 buttercoef3;
#X obj 336 209 / 24000;
#X obj 152 42 inlet;
#X text 413 267 calculate the filter coefficients:;
#X obj 336 136 loadbang;
#X obj 282 40 inlet;
#X obj 230 30 inlet;
#X text 20 12 Sig in;
#X text 81 195 Distortion;
#X obj 199 229 *~;
#X obj 199 254 rpole~;
#X obj 199 279 *~;
#X obj 199 314 cpole~, f 10;
#X obj 199 343 cpole~, f 10;
#X text 328 333 See the original example for explaination of these
calculations.;
#X text 332 364 Find w/PD Browser \, file is J07.oversampling.pd;
#X obj 352 74 inlet;
#X obj 20 195 sqrtpeaks;
#X obj 20 170 *~ 1;
#X obj 21 226 /~ 1;
#X text 230 12 Gain;
#X obj 20 144 *~ 1;
#X msg 336 161 12000;
#X obj 89 26 inlet;
#X obj 200 372 *~ 0.125;
#X obj 20 30 inlet~;
#X obj 419 85 inlet;
#X obj 419 113 / 2;
#X text 460 82 sample rate to set \; filter;
#X text 80 7 Low Pass in;
#X text 139 25 low pass out;
#X obj 21 105 lop~;
#X obj 21 81 vcf~ 1.85;
#X obj 21 57 *~ 1.5;
#X obj 336 234 / 16;
#X text 275 22 peak scaling;
#X text 471 36 This window is oversampled x 16;
#X text 384 209 sample rate / 2;
#X text 325 56 Pre & Post Scaling;
#X obj 473 16 block~ 1024 1 16;
#X connect 0 0 1 0;
#X connect 1 0 2 0;
#X connect 2 0 3 0;
#X connect 4 0 13 1;
#X connect 4 1 15 1;
#X connect 4 2 14 1;
#X connect 4 3 16 2;
#X connect 4 3 17 2;
#X connect 4 4 16 3;
#X connect 4 5 17 3;
#X connect 5 0 38 0;
#X connect 6 0 5 0;
#X connect 8 0 26 0;
#X connect 9 0 21 1;
#X connect 10 0 25 1;
#X connect 13 0 14 0;
#X connect 14 0 15 0;
#X connect 15 0 16 0;
#X connect 16 0 17 0;
#X connect 16 1 17 1;
#X connect 17 0 28 0;
#X connect 20 0 22 1;
#X connect 20 0 23 1;
#X connect 21 0 23 0;
#X connect 22 0 21 0;
#X connect 23 0 13 0;
#X connect 25 0 22 0;
#X connect 26 0 5 0;
#X connect 27 0 35 1;
#X connect 27 0 36 1;
#X connect 28 0 0 0;
#X connect 29 0 37 0;
#X connect 30 0 31 0;
#X connect 31 0 5 1;
#X connect 35 0 25 0;
#X connect 36 0 35 0;
#X connect 37 0 36 0;
#X connect 38 0 4 0;
