#N canvas 554 232 492 353 10;
#X obj 57 13 inlet~;
#X obj 56 265 outlet~;
#X text 115 7 Distortion function;
#X obj 197 66 sqrt~;
#X obj 198 43 abs~;
#X obj 56 193 expr~ if( $v1 > 1 \, $v2 \, if ($v1 < -1 \, $v3 \, $v1))
;
#X text 98 234 Sqrt Absolute value of both peaks \, re-negate - peaks
;
#X obj 398 57 inlet;
#X obj 343 95 -~ 1;
#X obj 342 119 *~ 1;
#X obj 342 143 +~ 1;
#X obj 341 167 *~ -1;
#X text 136 252 Flatten NEG peaks (CAN be inverted \, results vary)
;
#X obj 197 124 *~ 1;
#X obj 198 100 -~ 1.25;
#X obj 197 148 +~ 1.25;
#X connect 0 0 4 0;
#X connect 0 0 5 0;
#X connect 3 0 8 0;
#X connect 3 0 14 0;
#X connect 4 0 3 0;
#X connect 5 0 1 0;
#X connect 7 0 9 1;
#X connect 7 0 13 1;
#X connect 8 0 9 0;
#X connect 9 0 10 0;
#X connect 10 0 11 0;
#X connect 11 0 5 2;
#X connect 13 0 15 0;
#X connect 14 0 13 0;
#X connect 15 0 5 1;
