#N canvas 321 117 934 559 10;
#X obj 18 59 hsl 128 15 0.1 85 0 0 \$0-gain_s \$0-gain_r Gain 20 -8
0 10 -262130 -1 -1 2827 1;
#X obj 206 278 hsl 128 15 0 1 0 0 \$0-level_s \$0-level_r Level 20
-8 0 10 -228856 -1 -1 5080 1;
#X obj 596 73 adc~ 1;
#X obj 592 493 dac~ 1;
#X obj 18 95 hsl 128 15 1 0 0 0 \$0-peaks_s \$0-peaks_r Squash_peaks
20 -8 0 10 -262130 -1 -1 4699 1;
#X obj 18 131 hsl 128 15 500 2000 0 0 \$0-lowpass_s \$0-lowpass_r LowPass_in
20 -8 0 10 -262144 -1 -1 3387 1;
#X obj 206 95 hsl 128 15 10 350 0 0 \$0-sweep_s \$0-sweep_r LFO_Sweep_range
20 -8 0 10 -228856 -1 -1 2615 1;
#X floatatom 344 93 5 0 0 0 - - -;
#X floatatom 154 56 5 0 0 0 - - -;
#X floatatom 154 93 5 0 0 0 - - -;
#X floatatom 154 130 5 0 0 0 - - -;
#X floatatom 344 276 5 0 0 0 - - -;
#X obj 206 243 hsl 128 15 3 -10 0 0 \$0-mixAmt_s \$0-mixAmt_r Mix_Amount
20 -8 0 10 -262130 -1 -1 6497 1;
#X floatatom 344 241 5 0 0 0 - - -;
#X obj 57 206 hradio 15 1 0 6 \$0-scale_s \$0-scale_r Scale 20 -8 0
10 -262144 -1 -1 1;
#X obj 514 205 vcf~ 400, f 11;
#X obj 302 33 tgl 15 0 \$0-LFOonOff_s \$0-LFOonOff_r LFO_on/off 17
7 0 10 -228856 -1 -1 1 1;
#X obj 481 28 osc~ 0.3;
#X obj 206 132 hsl 128 15 50 1500 0 0 \$0-freqCenter_s \$0-freqCenter_r
Freq_Center 20 -8 0 10 -262130 -1 -1 6600 1;
#X floatatom 344 130 5 0 0 0 - - -;
#X obj 206 58 hsl 128 15 0.01 5 0 0 \$0-LFOfreq_s \$0-LFOfreq_r LFO_freq
20 -8 0 10 -228856 -1 -1 865 1;
#X floatatom 344 56 5 0 0 0 - - -;
#X obj 206 169 hsl 128 15 0.1 12 0 0 \$0-freqQ_s \$0-freqQ_r Filter_Q
20 -8 0 10 -262130 -1 -1 2700 1;
#X floatatom 344 167 5 0 0 0 - - -;
#X obj 206 206 hsl 128 15 1 0 0 0 \$0-fMix_s \$0-fMix_r BP....Filter_Mix....LP
0 -8 0 10 -262130 -1 -1 1905 1;
#X obj 644 183 - 1;
#X obj 644 206 abs;
#X floatatom 344 204 5 0 0 0 - - -;
#N canvas 48 110 716 527 preWindow 0;
#X obj 69 257 text define \$0-preText;
#X obj 51 51 cnv 15 174 64 empty empty empty 20 12 0 14 -66577 -66577
0;
#X obj 53 53 cnv 15 170 60 empty empty empty 20 12 0 14 -191407 -66577
0;
#X obj 60 70 hradio 14 1 0 9 \$0-presRadio_s \$0-presRadio_r Presets
2 -8 0 10 -262144 -1 -1 2;
#X symbolatom 60 91 21 0 0 0 - #0-presetName_r #0-presetName_s;
#X obj 200 59 vradio 13 1 0 3 \$0-presBank_s empty empty 0 -8 0 10
-262144 -1 -1 1;
#X text 194 97 Bank;
#X obj 292 94 + 0;
#X obj 307 52 * 9;
#X obj 278 62 t b;
#X obj 69 168 loadbang;
#X obj 341 52 r \$0-presRadio_s;
#X obj 307 24 r \$0-presBank_s;
#X msg 22 348 0;
#X obj 22 373 s \$0-presRadio_r;
#X obj 22 323 delay 200;
#X obj 95 229 r \$0-preTextDefine;
#X obj 292 121 text get \$0-preText 0 16;
#X obj 227 20 bng 15 250 50 0 empty \$0-bankReset BankReset 17 7 0
10 -262144 -1 -1;
#X obj 292 168 unpack f f f f f f f f f f f f f f f s, f 39;
#X obj 369 223 s \$0-scale_r;
#X obj 322 298 s \$0-level_r;
#X obj 492 250 s \$0-lowpass_r;
#X obj 399 394 s \$0-LFOfreq_r;
#X obj 415 369 s \$0-sweep_r;
#X obj 446 320 s \$0-freqQ_r;
#X obj 384 198 s \$0-LFOonOff_r;
#X obj 461 297 s \$0-fMix_r;
#X obj 307 323 s \$0-gain_r;
#X obj 353 248 s \$0-peaks_r;
#X obj 507 226 s \$0-loOut_r;
#X obj 292 347 s \$0-preLevel_r;
#X obj 430 344 s \$0-freqCenter_r;
#X obj 476 273 s \$0-mixAmt_r;
#X obj 523 199 s \$0-presetName_r;
#X obj 338 272 s \$0-resonance_r;
#X msg 69 195 read ./gtPresets_V2.txt;
#X connect 7 0 17 0;
#X connect 8 0 7 1;
#X connect 9 0 7 0;
#X connect 10 0 36 0;
#X connect 10 0 15 0;
#X connect 11 0 7 0;
#X connect 12 0 8 0;
#X connect 12 0 9 0;
#X connect 13 0 14 0;
#X connect 15 0 13 0;
#X connect 16 0 0 0;
#X connect 17 0 19 0;
#X connect 18 0 9 0;
#X connect 19 0 31 0;
#X connect 19 1 28 0;
#X connect 19 2 21 0;
#X connect 19 3 35 0;
#X connect 19 4 29 0;
#X connect 19 5 20 0;
#X connect 19 6 26 0;
#X connect 19 7 23 0;
#X connect 19 8 24 0;
#X connect 19 9 32 0;
#X connect 19 10 25 0;
#X connect 19 11 27 0;
#X connect 19 12 33 0;
#X connect 19 13 22 0;
#X connect 19 14 30 0;
#X connect 19 15 34 0;
#X connect 36 0 0 0;
#X coords 0 -1 1 1 176 66 2 50 50;
#X restore 14 275 pd preWindow;
#X obj 18 169 hsl 128 15 800 6000 0 0 \$0-loOut_s \$0-loOut_r Lowpass_out
20 -8 0 10 -262144 -1 -1 3663 1;
#X obj 726 387 samplerate~;
#X obj 726 364 loadbang;
#X obj 594 431 16x_distort;
#X text 47 426 AUCOP Guitar Toy is an 16x oversampled distortion and
filtering plugin for guitarists;
#X obj 481 67 *~ 1;
#X floatatom 154 168 5 0 0 0 - - -;
#N canvas 76 227 701 392 savetx 0;
#X obj 288 38 bng 15 250 50 0 empty empty Load_Preset_File 18 7 0 10
-262144 -1 -1;
#X obj 286 197 s \$0-preTextDefine;
#X obj 286 147 openpanel;
#X msg 286 174 read \$1;
#X obj 258 203 t b;
#X obj 258 251 s \$0-bankReset;
#X obj 258 227 delay 100;
#X msg 286 109 symbol ~/.AUCOP/guitarToy16x/;
#X connect 0 0 7 0;
#X connect 2 0 3 0;
#X connect 3 0 1 0;
#X connect 3 0 4 0;
#X connect 4 0 6 0;
#X connect 6 0 5 0;
#X connect 7 0 2 0;
#X coords 0 -1 1 1 134 30 2 280 30;
#X restore 203 309 pd savetx;
#X obj 18 26 hsl 128 15 1 50 0 0 \$0-preLevel_s \$0-preLevel_r Pre-Level
20 -8 0 10 -228856 -1 -1 6480 1;
#X floatatom 154 25 5 0 0 0 - - -;
#X text 619 23 AUCOP GuitarToy \, Pd patch version;
#X obj 596 99 *~;
#X obj 611 263 *~;
#X obj 610 293 *~;
#X obj 514 236 *~;
#X obj 501 98 *~;
#X obj 502 125 +~;
#X obj 593 469 *~;
#X obj 594 320 +~;
#X obj 18 244 hsl 128 15 0.1 4 0 0 \$0-resonance_s \$0-resonance_r
Resonance 20 -8 0 10 -262130 -1 -1 3582 1;
#X floatatom 154 244 5 0 0 0 - - -;
#X obj 551 141 *~ 0.9;
#X obj 740 258 + 1;
#X obj 740 283 * 2;
#X obj 726 158 r \$0-resonance_s;
#X obj 711 133 r \$0-lowpass_s;
#X obj 732 183 r \$0-gain_s;
#X obj 740 207 r \$0-peaks_s;
#X obj 740 233 r \$0-scale_s;
#X obj 743 315 r \$0-loOut_s;
#X text 191 8 AUCOP-guitarToy16X Pd v0.1.71a, f 31;
#X connect 0 0 8 0;
#X connect 1 0 11 0;
#X connect 1 0 46 1;
#X connect 2 0 40 0;
#X connect 4 0 9 0;
#X connect 5 0 10 0;
#X connect 6 0 7 0;
#X connect 7 0 44 1;
#X connect 12 0 13 0;
#X connect 13 0 42 1;
#X connect 15 0 43 0;
#X connect 15 1 41 0;
#X connect 16 0 34 1;
#X connect 17 0 34 0;
#X connect 18 0 19 0;
#X connect 19 0 45 1;
#X connect 20 0 21 0;
#X connect 21 0 17 0;
#X connect 22 0 23 0;
#X connect 22 0 15 2;
#X connect 24 0 25 0;
#X connect 24 0 27 0;
#X connect 24 0 43 1;
#X connect 25 0 26 0;
#X connect 26 0 41 1;
#X connect 29 0 35 0;
#X connect 30 0 32 7;
#X connect 31 0 30 0;
#X connect 32 0 46 0;
#X connect 34 0 44 0;
#X connect 37 0 38 0;
#X connect 37 0 40 1;
#X connect 40 0 47 0;
#X connect 40 0 50 0;
#X connect 41 0 42 0;
#X connect 42 0 47 1;
#X connect 43 0 42 0;
#X connect 44 0 45 0;
#X connect 45 0 15 1;
#X connect 46 0 3 0;
#X connect 47 0 32 0;
#X connect 48 0 49 0;
#X connect 50 0 15 0;
#X connect 51 0 52 0;
#X connect 52 0 32 5;
#X connect 53 0 32 2;
#X connect 54 0 32 1;
#X connect 55 0 32 3;
#X connect 56 0 32 4;
#X connect 57 0 51 0;
#X connect 58 0 32 6;
#X coords 0 -1 1 1 380 350 2 4 4;
