#N canvas 182 92 1055 601 10;
#N canvas 5 51 450 250 (subpatch) 0;
#X array \$0-array 129 float 2;
#X coords 0 250 129 249 200 140 0;
#X restore 308 447 graph;
#X obj 582 284 float;
#X obj 629 284 + 1;
#X obj 755 364 array set \$0-array;
#X msg 755 285 \$1;
#X obj 797 285 bng 15 250 50 0 empty empty empty 17 7 0 10 -262144
-1 -1;
#X obj 584 77 array get \$0-array;
#X obj 491 33 bng 15 250 50 0 empty \$0-updateSymBox_r updateSymBox
17 7 0 10 -262144 -1 -1;
#X obj 584 100 list tosymbol;
#X obj 755 242 spigot;
#X obj 788 186 >= 32;
#X obj 69 509 pack 0 \$0;
#X msg 69 532 \; \$2-array const 0 \;;
#X obj 69 431 t b;
#X obj 374 238 spigot;
#X obj 407 107 tgl 14 0 \$0-activate_s \$0-activate_r Activate_State
18 7 0 10 -262144 -1 -1 1 1;
#X obj 374 215 key;
#X msg 584 53 0;
#X obj 582 314 - 1;
#X obj 584 11 loadbang;
#X obj 581 484 array set \$0-array;
#X msg 581 461 187;
#X obj 581 438 r \$0-drawCursor;
#X obj 58 400 loadbang;
#X obj 428 307 t b;
#X obj 409 425 pack f f;
#X msg 409 449 \$2;
#X msg 428 333 0 0;
#X text 440 450 Decr cursor pos;
#X text 575 241 Cursor Pos counter;
#X obj 409 473 max 0;
#X obj 116 246 array get \$0-array;
#X msg 116 223 0;
#X obj 116 269 list tosymbol;
#X obj 116 292 list trim;
#X text 294 427 The array;
#X obj 116 315 outlet;
#X text 73 373 ESC: reset TBox;
#X text 133 512 Erase array;
#X text 575 420 Add a cursor to array;
#X obj 755 215 spigot;
#X text 818 232 Stop at limit;
#X obj 582 259 r \$0-setCount;
#X obj 409 497 s \$0-setCount;
#X obj 821 307 s \$0-setCount;
#X obj 619 314 s \$0-rawCount;
#X obj 633 460 r \$0-rawCount;
#X obj 867 181 r \$0-rawCount;
#X obj 168 220 r \$0-rawCount;
#X obj 122 455 s \$0-setCount;
#X msg 87 455 0;
#X text 457 308 BackSPC;
#X text 706 166 Chrs >32 are 'Legal';
#X obj 165 192 t b;
#X obj 374 261 select 10 27 8;
#X obj 825 214 <= 24;
#X obj 852 130 float 24;
#X obj 151 401 r \$0-resetTB;
#X obj 930 105 s \$0-resetTB;
#X text 283 3 TBox: text entry box \; \; Special keys-- \; ESC: erase
and reset \; BackSPC: del cur char \; LF (RET): return STR \;;
#X obj 852 82 - 1;
#X obj 852 106 clip 2 128;
#X obj 22 41 inlet;
#X obj 407 187 r \$0-activate_s;
#X msg 811 58 24;
#X msg 636 53 128;
#X obj 206 319 outlet;
#X obj 206 293 float;
#X obj 206 269 t b;
#X text 886 30 Set max length;
#X obj 752 470 s \$0-drawCursor;
#X obj 742 422 r updateTheBox;
#X obj 83 484 s updateTheBox;
#X obj 419 399 s updateTheBox;
#X obj 797 331 s updateTheBox;
#X text 250 317 Leng;
#X text 159 313 str;
#X obj 742 517 s \$0-updateSymBox_r;
#X obj 742 493 t b;
#X obj 930 82 t b;
#X obj 742 446 delay 1;
#X obj 409 373 t b;
#X obj 2 2 cnv 15 174 19 \$0-bgCanvas_s \$0-bgCanvas_r empty 20 12
0 14 -262144 -66577 0;
#X symbolatom 4 3 28 0 0 0 - #0-theBox_r #0-theBox_s;
#X obj 22 94 s \$0-activate_r;
#X obj 584 125 s \$0-theBox_r;
#X text 580 143 To the box;
#X obj 888 49 r \$0-setLength;
#X obj 163 94 s \$0-setLength;
#N canvas 666 304 450 300 active_color 0;
#X obj 64 38 inlet;
#X obj 143 106 pack 0 \$0;
#X obj 64 151 pack 0 \$0;
#X msg 143 129 \; \$2-bgCanvas_r color 0 0;
#X obj 64 67 sel 0 1;
#X msg 64 174 \; \$2-bgCanvas_r color 21 0;
#X connect 0 0 4 0;
#X connect 1 0 3 0;
#X connect 2 0 5 0;
#X connect 4 0 2 0;
#X connect 4 1 1 0;
#X restore 407 130 pd active_color;
#X text 123 157 CR: Return the Str & leng \; and Fetch;
#X obj 22 69 route active reset fetch length, f 32;
#X connect 1 0 2 0;
#X connect 1 0 18 0;
#X connect 1 0 45 0;
#X connect 2 0 1 1;
#X connect 4 0 3 0;
#X connect 5 0 44 0;
#X connect 5 0 74 0;
#X connect 6 0 8 0;
#X connect 7 0 6 0;
#X connect 8 0 85 0;
#X connect 9 0 5 0;
#X connect 9 0 4 0;
#X connect 10 0 40 1;
#X connect 11 0 12 0;
#X connect 13 0 11 0;
#X connect 13 0 50 0;
#X connect 13 0 72 0;
#X connect 14 0 54 0;
#X connect 15 0 89 0;
#X connect 16 0 14 0;
#X connect 17 0 6 0;
#X connect 17 0 15 0;
#X connect 18 0 3 1;
#X connect 18 0 25 1;
#X connect 19 0 17 0;
#X connect 19 0 65 0;
#X connect 19 0 64 0;
#X connect 21 0 20 0;
#X connect 22 0 21 0;
#X connect 23 0 13 0;
#X connect 24 0 27 0;
#X connect 24 0 81 0;
#X connect 25 0 26 0;
#X connect 26 0 30 0;
#X connect 27 0 3 0;
#X connect 30 0 43 0;
#X connect 31 0 33 0;
#X connect 32 0 31 0;
#X connect 32 0 68 0;
#X connect 33 0 34 0;
#X connect 34 0 36 0;
#X connect 40 0 9 0;
#X connect 42 0 1 0;
#X connect 46 0 20 1;
#X connect 47 0 55 0;
#X connect 48 0 31 1;
#X connect 48 0 67 1;
#X connect 50 0 49 0;
#X connect 53 0 32 0;
#X connect 54 0 53 0;
#X connect 54 1 13 0;
#X connect 54 2 24 0;
#X connect 54 3 10 0;
#X connect 54 3 40 0;
#X connect 55 0 9 1;
#X connect 56 0 55 1;
#X connect 57 0 13 0;
#X connect 60 0 61 0;
#X connect 61 0 56 0;
#X connect 62 0 91 0;
#X connect 63 0 14 1;
#X connect 64 0 60 0;
#X connect 65 0 6 1;
#X connect 67 0 66 0;
#X connect 68 0 67 0;
#X connect 71 0 80 0;
#X connect 78 0 77 0;
#X connect 79 0 58 0;
#X connect 80 0 70 0;
#X connect 80 0 78 0;
#X connect 81 0 25 0;
#X connect 81 0 73 0;
#X connect 87 0 60 0;
#X connect 87 0 79 0;
#X connect 91 0 84 0;
#X connect 91 1 13 0;
#X connect 91 2 32 0;
#X connect 91 3 88 0;
#X coords 0 -1 1 1 176 21 2 1 1;
