#N canvas 312 190 823 510 12;
#X obj 337 84 *~;
#X obj 256 404 *~;
#X obj 25 62 hsl 128 15 0.01 10 0 0 \$0-freq_s \$0-freq_r Frequency
-2 -8 0 10 -228856 -1 -1 620 1;
#X obj 25 100 hsl 128 15 0.05 3 0 0 \$0-peak_s \$0-peak_r Peak_Profile
-2 -8 0 10 -262130 -1 -1 4090 1;
#X obj 257 365 adc~ 1 2;
#X obj 256 443 dac~ 1 2;
#X obj 309 412 *~;
#X obj 164 62 nbx 3 14 -1e+37 1e+37 0 0 empty \$0_freqNo_r empty 0
-8 0 10 -262144 -1 -1 0.4 256;
#X obj 164 100 nbx 3 14 -1e+37 1e+37 0 0 empty \$0_depthNo_r empty
0 -8 0 10 -262144 -1 -1 1 256;
#X obj 25 137 hsl 128 15 0.05 2 0 0 \$0-gain_s \$0-gain_r Gain -2 -8
0 10 -228856 -1 -1 6187 1;
#X obj 164 137 nbx 3 14 -1e+37 1e+37 0 0 empty \$0_strengthNo_r empty
0 -8 0 10 -262144 -1 -1 1 256;
#X text 62 13 AUCOPlugins, f 13;
#X obj 337 46 osc~;
#X obj 336 199 *~;
#X obj 336 140 +~ 1;
#X obj 335 167 *~ 0.5;
#X obj 337 112 clip~ -1 1;
#X obj 339 371 max~ 0.3;
#X obj 187 360 max~ 0.3;
#X obj 337 284 *~ -1;
#X obj 338 317 +~ 1.8;
#X obj 25 171 hsl 128 15 0 1 0 0 \$0-floor_s \$0-floor_r Min_Floor
-2 -8 0 10 -262130 -1 -1 2540 1;
#X obj 407 52 r \$0-peak_s;
#X obj 337 11 r \$0-freq_s;
#X obj 407 214 r \$0-strength_s;
#X obj 171 260 r \$0-floor_s;
#X obj 164 171 nbx 3 14 -1e+37 1e+37 0 0 empty empty empty 0 -8 0 10
-262144 -1 -1 0.2 256;
#X obj 565 72 pack \$0;
#X obj 565 32 loadbang;
#X text 94 34 pingolo V0.1.71, f 16;
#X msg 565 99 \; \$1-freq_r 0.4 \; \$1-peak_r 1 \; \$1-gain_r 1 \;
\$1-floor_r 0.2;
#X connect 0 0 16 0;
#X connect 1 0 5 0;
#X connect 2 0 7 0;
#X connect 3 0 8 0;
#X connect 4 0 1 0;
#X connect 4 1 6 0;
#X connect 6 0 5 1;
#X connect 9 0 10 0;
#X connect 12 0 0 0;
#X connect 13 0 18 0;
#X connect 13 0 19 0;
#X connect 14 0 15 0;
#X connect 15 0 13 0;
#X connect 16 0 14 0;
#X connect 17 0 6 1;
#X connect 18 0 1 1;
#X connect 19 0 20 0;
#X connect 20 0 17 0;
#X connect 21 0 26 0;
#X connect 22 0 0 1;
#X connect 23 0 12 0;
#X connect 24 0 13 1;
#X connect 24 0 20 1;
#X connect 25 0 18 1;
#X connect 25 0 17 1;
#X connect 27 0 30 0;
#X connect 28 0 27 0;
#X coords 0 -1 1 1 200 190 2 10 10;
