#N canvas 56 383 450 300 12;
#X obj 124 133 *~;
#X obj 78 132 *~;
#X obj 78 209 outlet~;
#X obj 168 209 outlet~;
#X obj 79 39 inlet~;
#X obj 212 12 inlet;
#X obj 212 109 abs;
#X obj 212 81 - 1;
#X obj 212 39 clip 0 1;
#X connect 0 0 3 0;
#X connect 1 0 2 0;
#X connect 4 0 1 0;
#X connect 4 0 0 0;
#X connect 5 0 8 0;
#X connect 6 0 0 1;
#X connect 7 0 6 0;
#X connect 8 0 7 0;
#X connect 8 0 1 1;
